#!OML:ASF E:/inclinewalkrobotboard/Project1/Captureday1/Session1/subject1.ASF
:FULLY-SPECIFIED
:DEGREES
1
root 0 0 0 -3.3020060651337055 -8.374378587125673 3.730929859531458
lowerback 10.124478052486774 -1.0575976147685786 -5.441464506220564
upperback 2.097260894865755 -2.0040201997890166 0.1866803657688738
thorax -3.3834507557073668 -0.9095102236546952 3.5214142873849528
lowerneck -9.464478278351756 -2.5851241907798945 -5.224291140952115
upperneck 14.660180101083002 -3.4228498595963597 4.655087339915619
head 6.369821377382677 -1.7469069333830891 2.1192267767452355
rclavicle -6.27775841449432E-16 -2.748860910297819E-16
rhumerus -27.312642904028994 -16.25536562917184 -77.72873031294192
rradius 28.34868308882585
rwrist 4.770749626830119
rhand -17.94654405185821 21.179116767898595
rfingers 7.1250200000000055
rthumb 8.309721717073405 -8.612289604339338
lclavicle -9.20494269146261E-16 -1.5986724566437912E-16
lhumerus -26.560263159897517 -5.758627626298495 82.05892219538848
lradius 40.42691814126915
lwrist 6.4364962525306995
lhand -23.16646384850634 25.307709681010564
lfingers 7.121681534990352
lthumb 3.2292497861624927 54.17696073883128
rfemur -18.83435842304268 5.310339097605898 21.5794150686882
rtibia 40.877320113515474
rfoot -7.059492436815327 -8.132520346155927
rtoes 1.0312927303584978
lfemur 3.202653119502914 -3.36796926186235 -25.785757489449356
ltibia 19.214259263344076
lfoot -16.461626052876536 1.2611918856592883
ltoes -4.193320429907184
2
root 0 0 0 -3.2888975373950995 -7.781348974203161 3.8034009001308458
lowerback 10.148050604605437 -1.161915831159705 -5.534651172150436
upperback 2.0153617983643652 -2.149694645985504 0.2728812983908764
thorax -3.476266981051948 -0.9761507542765546 3.6881846728048013
lowerneck -9.865066978537023 -2.5748541248340704 -5.083380564929563
upperneck 14.967459766938447 -3.3868701197103057 4.421127778807748
head 6.517958574038391 -1.728246466149238 2.0151961036941666
rclavicle -6.224478879602203E-16 -2.7270637011130276E-16
rhumerus -27.239785579755676 -16.202981602468327 -77.7151447837214
rradius 28.409624320260377
rwrist 4.784736290312446
rhand -17.9608865189322 21.12768450388539
rfingers 7.125020000000005
rthumb 8.297938928386861 -8.664214704088835
lclavicle -9.211207482696481E-16 -1.6022069350172274E-16
lhumerus -26.546167363057855 -5.748551545464704 82.05567432169187
lradius 40.44226255632688
lwrist 6.45186381910413
lhand -23.176153068058625 25.32386243781313
lfingers 7.12175820553256
lthumb 3.2198647305236854 54.17841724646305
rfemur -22.911971009710808 3.1506178813101045 19.799479508831972
rtibia 51.82052572213448
rfoot -1.7638169067320533 -7.3012001570690135
rtoes 4.126994841520051
lfemur 3.814928340416026 -3.2420917820339508 -25.930778772493902
ltibia 20.065767361394716
lfoot -16.234157227641667 0.8058542454669873
ltoes -4.555552095562008
3
root 0 0 0 -3.2351168003093522 -6.842257085298556 3.576993644888481
lowerback 10.183332253315324 -1.2006338464440414 -5.322032945874599
upperback 1.8515317697403655 -2.1688201669728118 0.437235577324822
thorax -3.6646203552271333 -0.984385332137681 3.7477315956774593
lowerneck -10.665681538582607 -2.579311261670108 -4.769361630523637
upperneck 15.515744954391693 -3.361181764601703 3.9698712721607627
head 6.800535994340535 -1.71044128326692 1.8016205439516302
rclavicle -6.199325732442296E-16 -2.632893010699936E-16
rhumerus -27.127910880649523 -16.115464650831413 -77.68776376294548
rradius 28.507327502793995
rwrist 4.808243968014584
rhand -17.98336582316013 21.047022001640954
rfingers 7.125020000000004
rthumb 8.27877918653791 -8.74310953439078
lclavicle -9.155598301382574E-16 -1.433132377755757E-16
lhumerus -26.519001693029352 -5.740139781921915 82.04778956338869
lradius 40.46583969091451
lwrist 6.472204329356471
lhand -23.187779830994344 25.342406311458813
lfingers 7.1218403501111585
lthumb 3.207709279238312 54.17786352012827
rfemur -25.59571847561255 1.3218290730018065 18.77412517235977
rtibia 61.215964609331365
rfoot 2.6386300435356684 -6.399259823523708
rtoes 7.167089601717675
lfemur 3.7372170675792926 -3.0870577713911906 -25.762905782062916
ltibia 21.294822027270023
lfoot -15.664091174184014 0.3183319511621088
ltoes -4.804700354374821
4
root 0 0 0 -3.1375274270248172 -5.333529936240987 3.1109662251978962
lowerback 10.2341225756895 -1.2243508828507812 -4.87223104005153
upperback 1.5774141913787918 -2.1352644354906696 0.7087329953987018
thorax -3.9777306875073952 -0.9682738589680799 3.7810636782565448
lowerneck -12.001539354422835 -2.591142710694029 -4.236315587215618
upperneck 16.412342750912906 -3.326816673335151 3.222039332620329
head 7.26810450328084 -1.684733059718392 1.4438213856410005
rclavicle -6.012965357225745E-16 -2.635824559507605E-16
rhumerus -27.249115054789723 -16.25122433369676 -77.70914511482712
rradius 28.3852157176808
rwrist 4.77934337494932
rhand -17.9676513317918 21.140948334775644
rfingers 7.1250200000000055
rthumb 8.295504311117169 -8.651047058328455
lclavicle -8.972596219983452E-16 -1.304244959174357E-16
lhumerus -26.67009204859506 -5.5346921972049365 82.05152224864132
lradius 40.10687135319238
lwrist 6.45381173250534
lhand -23.31515685925865 25.291660383935593
lfingers 7.1220199645713125
lthumb 3.0847126133365546 54.14587685832336
rfemur -25.086587318042714 1.0647317797373592 19.22402206489459
rtibia 62.35035327322231
rfoot 3.120124076933168 -6.040431816558451
rtoes 7.9406609907313
lfemur 3.060745741893543 -2.9696965696036957 -25.386361309519735
ltibia 22.35287893109024
lfoot -14.99216861961706 -0.022024979999218708
ltoes -4.839030030282739
5
root 0 0 0 -3.019492820590422 -3.5153644365600325 2.5223110343412194
lowerback 10.288691036381882 -1.2393338774199218 -4.3034726253264495
upperback 1.2447028346561888 -2.0730612125482972 1.0345827594981056
thorax -4.3571417800750964 -0.9385377955442824 3.799326255710964
lowerneck -13.625602052064309 -2.60287840673084 -3.584982001229176
upperneck 17.48883574154149 -3.281237644294541 2.3130326422013106
head 7.832161137278421 -1.6534581255608851 1.007833513246284
rclavicle -5.708308799614861E-16 -2.6936322814364366E-16
rhumerus -27.543091880344985 -16.538834942817637 -77.76433204673303
rradius 28.112120849413248
rwrist 4.713516872102041
rhand -17.925495200587626 21.356223463213247
rfingers 7.125020000000008
rthumb 8.33805412936815 -8.439395411935855
lclavicle -8.687467607664785E-16 -1.2424830037310094E-16
lhumerus -26.948098506198637 -5.199887580915217 82.06501085922342
lradius 39.48510670741393
lwrist 6.404115051208177
lhand -23.514682784895257 25.189528436426418
lfingers 7.122230551720203
lthumb 2.893159651553482 54.09448837370917
rfemur -23.228496608084765 1.5516754800099388 20.271475879133668
rtibia 59.4770010070015
rfoot 1.7717077278729665 -5.978955920951934
rtoes 7.520871657459145
lfemur 2.561116242256004 -2.922563307447447 -25.155123511251233
ltibia 22.825551695072065
lfoot -14.568568185308289 -0.2116541273347412
ltoes -4.786431152028099
6
root 0 0 0 -2.9157736608005766 -1.9250844688659932 1.9715213840035681
lowerback 10.331466692244645 -1.233551133335498 -3.77099250253811
upperback 0.9506972754220402 -1.988531846264983 1.3179707515895005
thorax -4.6935590805965095 -0.898171306936691 3.785071731760005
lowerneck -15.065336923260709 -2.611207459227674 -3.0038463371938864
upperneck 18.4258702799978 -3.2372179164201538 1.5062470629149516
head 8.327432429765059 -1.6263693315898773 0.6204456996165519
rclavicle -5.340060458396731E-16 -2.7894148806171036E-16
rhumerus -27.901671546723048 -16.88452480744703 -77.82806674675386
rradius 27.782059954684343
rwrist 4.636675739733708
rhand -17.872338243403302 21.61620729391394
rfingers 7.125020000000012
rthumb 8.390364017892281 -8.183913468807855
lclavicle -8.39098317586702E-16 -1.2619486848220548E-16
lhumerus -27.27944312245311 -4.814923090868131 82.08220807141754
lradius 38.75339907315261
lwrist 6.337902415636791
lhand -23.739628032018683 25.06355340632593
lfingers 7.122447128373184
lthumb 2.6782796572431717 54.03397928270046
rfemur -21.197321779574686 2.1643420344865776 21.38464545396326
rtibia 55.9621977252274
rfoot 0.1397328598414198 -5.980048035005189
rtoes 6.897311165357261
lfemur 2.4997916329586882 -2.865894340768678 -25.121101967782565
ltibia 23.265146400838585
lfoot -14.189794680027855 -0.5411368664836615
ltoes -4.821689493605382
7
root 0 0 0 -2.813426661323027 -0.5595848731966591 1.3394967463911223
lowerback 10.367643859942747 -1.1641205896448654 -3.1447163763794603
upperback 0.6812947521174402 -1.8093958161342605 1.5710521138213882
thorax -5.003388313144901 -0.813771972623953 3.66656798476277
lowerneck -16.379511569362897 -2.62292694976657 -2.459575700728476
upperneck 19.2566712008726 -3.202957723632362 0.7682267510409995
head 8.776301153166806 -1.6071447574662898 0.26347553377918276
rclavicle -4.858185925779999E-16 -2.9016462113505934E-16
rhumerus -28.335657198319847 -17.311180513665036 -77.89672364997257
rradius 27.378885932668933
rwrist 4.548311129967512
rhand -17.80643439393951 21.933035643436458
rfingers 7.125020000000016
rthumb 8.453704650685244 -7.872499999192701
lclavicle -7.987626135123629E-16 -1.3860448258610131E-16
lhumerus -27.74146408337904 -4.294646133713947 82.10762766852235
lradius 37.74726805034983
lwrist 6.237380339136408
lhand -24.039549627110787 24.881383153369903
lfingers 7.1226934699458555
lthumb 2.3938453957374914 53.95101608375621
rfemur -18.048452890437837 3.144952536940062 23.099043496170047
rtibia 50.45352307018843
rfoot -2.4466792755692772 -6.0123340843166595
rtoes 5.935581369346276
lfemur 2.134774841848129 -2.639372680016879 -24.85780514805859
ltibia 25.053867712036485
lfoot -13.006124021244105 -1.485243039450559
ltoes -5.0028558088142
8
root 0 0 0 -2.7746900772592107 -0.21826437036141755 1.0385298801383422
lowerback 10.37922310757078 -1.094498757641698 -2.8332608340746903
upperback 0.5991822233977531 -1.6765282340442904 1.6467943349128191
thorax -5.0981572533465185 -0.7517464032769843 3.548547038207543
lowerneck -16.773650030751018 -2.631457854269509 -2.2850023096056464
upperneck 19.49799897444359 -3.200389385460819 0.5442888285343024
head 8.911159609494185 -1.6056376584045966 0.15241830598479256
rclavicle -4.671452164667172E-16 -2.9548091685969645E-16
rhumerus -28.51454786635959 -17.48745175256908 -77.92617903308465
rradius 27.210156231856644
rwrist 4.512305870868497
rhand -17.779186075916236 22.064121831459182
rfingers 7.125020000000018
rthumb 8.480375652462438 -7.744307083739837
lclavicle -7.877730780277633E-16 -1.427386774244132E-16
lhumerus -27.905726911585482 -4.115967383603429 82.11765287704851
lradius 37.393425523303826
lwrist 6.1991819378057835
lhand -24.14081963395897 24.815846060732856
lfingers 7.122769545577595
lthumb 2.2975354132978705 53.92356019310996
rfemur -15.644338509233165 4.003136432865014 24.341950308215985
rtibia 45.88034434116272
rfoot -4.649948407868334 -6.133545984312107
rtoes 5.018798189168069
lfemur 1.5724928667495437 -2.440591014622939 -24.484633275132328
ltibia 26.691230660230158
lfoot -12.032968495998539 -2.151107924094166
ltoes -5.162120472284974
